<svg width="254" height="254" viewBox="0 0 254 254" fill="none" xmlns="http://www.w3.org/2000/svg">
<path d="M0 0H254V254H0V0Z" fill="#25408F"/>
<path d="M6.374 138.107C10.0264 131.364 14.3813 124.481 19.4385 117.457C24.3553 110.292 29.3423 104.182 34.3995 99.1244C39.8781 93.6457 45.6378 89.4313 51.6783 86.4813C57.5784 83.3908 63.8297 82.0562 70.4322 82.4777C77.1752 82.7586 84.4098 85.0765 92.1362 89.4313C99.8625 93.5052 108.151 99.9672 117.001 108.817L183.798 175.615L165.677 193.737L100.354 128.414C89.3968 117.457 79.9848 110.854 72.118 108.607C64.2512 106.359 56.4546 109.098 48.7283 116.825C44.6544 120.899 40.7913 126.166 37.1388 132.628L131.962 227.452L113.84 245.573L6.374 138.107Z" fill="#C26F1F"/>
<path d="M228.989 134.616C223.185 140.42 217.22 144.128 211.094 145.74C204.968 147.352 198.734 147.46 192.392 146.062C186.051 144.45 179.656 141.494 173.207 137.195C166.866 132.789 160.524 127.414 154.183 121.073C140.211 107.101 131.827 93.6657 129.033 80.7681C126.238 67.6555 130 55.9401 140.318 45.622C143.435 42.5051 146.606 40.0868 149.83 38.3671C153.055 36.6474 156.333 35.3039 159.665 34.3366L167.564 49.3301C162.083 50.5124 157.3 53.1456 153.216 57.2299C147.412 63.0338 145.746 69.9663 148.218 78.0273C150.798 85.9809 157.623 95.4929 168.693 106.563C173.315 111.185 177.883 115.215 182.397 118.655C186.803 121.987 191.049 124.405 195.133 125.91C199.325 127.307 203.302 127.737 207.063 127.2C210.933 126.555 214.587 124.513 218.026 121.073C220.391 118.709 222.218 116.344 223.508 113.979C224.798 111.4 225.819 108.767 226.571 106.08L240.436 113.818C239.899 116.72 238.663 120.106 236.728 123.975C234.901 127.737 232.321 131.284 228.989 134.616Z" fill="#C26F1F"/>
</svg>
