<?xml version="1.0" encoding="utf-8"?>
<!-- Generator: Adobe Illustrator 20.0.0, SVG Export Plug-In . SVG Version: 6.00 Build 0)  -->
<svg version="1.1" id="Layer_1" xmlns="http://www.w3.org/2000/svg" xmlns:xlink="http://www.w3.org/1999/xlink" x="0px" y="0px"
	 viewBox="0 0 18 18" style="enable-background:new 0 0 18 18;" xml:space="preserve">
<image style="overflow:visible;enable-background:new    ;" width="69" height="69" xlink:href="514DD64D0399F5BF.jpeg"  transform="matrix(1 0 0 1 1045.8333 -26)">
</image>
<image style="overflow:visible;enable-background:new    ;" width="69" height="69" xlink:href="514DD64D0399F5BD.jpeg"  transform="matrix(1 0 0 1 1127.3333 -26)">
</image>
<path d="M547.1,153.1c-14.6-39.4,0.7-84.8-32.2-122.5c-20-23,17.8-121.5,45.5-144.4c15.7-13,15.2-34.4,16.5-52.2
	c4.4-56.8,38.9-84.5,88.7-99.5c-1,12.5-21.1,11.5-18.1,29.7c42.6-18.5,85.7-33.6,143.5-37.6c-52.6-16.2-89.2,0.4-126.6,9.3
	c53.1-42.4,170.2-34.3,237.6,17.1c50.8,38.8,80.6,86.6,71.6,154.7c-7.5,56.9-15.9,113.4-36.4,166.9c-9.9,25.7-16.5,54.6-53.3,63.3
	c-13.7,3.2-36.5,28-11.4,52.6c7,6.9,15.4,17.6,15,26.2c-2.3,49.9,28.6,74.9,67.1,95.1h-168c8.7-28.5,41.6-45,40.1-87.6
	c-50.5,68.6-113.2,88.9-188.8,72.9c-10.7-2.3-10.1,7.5-10.4,14.7h-8.8C594.7,258.9,570.9,206,547.1,153.1L547.1,153.1z M862.1,11.4
	c2.1-37.6-2.9-66.6,23.6-86.3c8.8-6.5,5.9-19.1-1.1-23.1c-24.1-13.6-45.7-36.7-74.6-36.1c-36.5,0.7-67.8-4.6-98.4-27.5
	c-46.5-34.9-79.4-22.7-97.9,30.8c-14.1,41-46.9,71.6-58.5,118.2c-16.8-32.3,25-58.2-7.5-93.4c-3.1,56.9-51.6,103.3-1.3,154
	c2.9,2.9,0.1,11.3,0.2,17.2c1.7,90.8,59.8,162.1,145,178.2c24.1,4.5,100.9-26.2,100.2-42c-2.1-54.6,17.3-97.9,59-133.1
	c9.6-8.1,21.6-23.3-9.9-25.2c-58.7-3.6-109-45.9-170.7-40.2c-6.7,0.6-15.8-1.4-13.6-12.3c4.9-23.8-13.9-21.7-26.6-22.7
	c-13.9-1-32.4,4.8-27.1-18.6c4.3-18.8,17.8-30.3,39.8-22.1c31,11.6,64.2,19.9,79.1,53c17.3-0.5,3.2-35.1,28-23
	C785-25.6,828.5-28.6,862.1,11.4L862.1,11.4z M705.5-233.5c29.9,8.9,42.9,30,61.6,44.4c8.2,6.4,16.4,5.2,21.7-4.1
	c3.8-6.6,5.5-15.9-4.9-16.3C757.3-210.6,742.4-242.1,705.5-233.5L705.5-233.5z M548.4,152.4c-8.8,39.8,16.7,82.1-8.2,120.8
	c-0.6-25.2,4.6-50.4-4.1-79.8c-32.3,36-28.4,80.4-41.4,118.5h-8.8c-33.7-36.7-33.7-53,3-103.2c10.8-14.8,24.7-27.3,38.1-41.9
	c-21.6-4.4-34.5,14.2-53.3,14.6C495.6,164.7,512.6,136.5,548.4,152.4L548.4,152.4z M603.1,76c22.7,2,43,21.4,67.7,8.8
	c10.5-13.1-20.1-16.9-8-34.1c24.3,11.9,49.1,28.7,79.3,18c8.4-12.4-27.1-17.2-6.3-30.5c16.7-10.6,21.7,5.4,29.6,15.7
	c42.2,54.9,38.8,92.4-13.3,136.4c-11.3,9.5-25.2,14.6-33.8-0.8c-26.6-47.3-80.8-62.6-114.4-101.5C602.6,86.4,603.5,82.7,603.1,76
	L603.1,76z"/>
<path d="M3.9,13.3c-0.4-1.2,0-2.5-1-3.7C2.3,8.9,3.5,6,4.3,5.3c0.5-0.4,0.5-1,0.5-1.6c0.1-1.7,1.2-2.5,2.6-3c0,0.4-0.6,0.3-0.5,0.9
	c1.3-0.6,2.6-1,4.3-1.1c-1.6-0.5-2.7,0-3.8,0.3c1.6-1.3,5.1-1,7.1,0.5c1.5,1.2,2.4,2.6,2.1,4.6c-0.2,1.7-0.5,3.4-1.1,5
	c-0.3,0.8-0.5,1.6-1.6,1.9c-0.4,0.1-1.1,0.8-0.3,1.6c0.2,0.2,0.5,0.5,0.4,0.8c-0.1,1.5,0.9,2.2,2,2.8h-5c0.3-0.9,1.2-1.3,1.2-2.6
	c-1.5,2-3.4,2.7-5.6,2.2c-0.3-0.1-0.3,0.2-0.3,0.4H6C5.3,16.4,4.6,14.8,3.9,13.3L3.9,13.3z M13.3,9c0.1-1.1-0.1-2,0.7-2.6
	c0.3-0.2,0.2-0.6,0-0.7c-0.7-0.4-1.4-1.1-2.2-1.1c-1.1,0-2-0.1-2.9-0.8c-1.4-1-2.4-0.7-2.9,0.9C5.5,6,4.5,6.9,4.1,8.3
	c-0.5-1,0.7-1.7-0.2-2.8c-0.1,1.7-1.5,3.1,0,4.6c0.1,0.1,0,0.3,0,0.5c0.1,2.7,1.8,4.8,4.3,5.3c0.7,0.1,3-0.8,3-1.3
	c-0.1-1.6,0.5-2.9,1.8-4c0.3-0.2,0.6-0.7-0.3-0.8c-1.8-0.1-3.3-1.4-5.1-1.2c-0.2,0-0.5,0-0.4-0.4c0.1-0.7-0.4-0.6-0.8-0.7
	c-0.4,0-1,0.1-0.8-0.6c0.1-0.6,0.5-0.9,1.2-0.7c0.9,0.3,1.9,0.6,2.4,1.6c0.5,0,0.1-1,0.8-0.7C11,7.9,12.3,7.8,13.3,9L13.3,9z
	 M8.6,1.7C9.5,2,9.9,2.6,10.5,3.1c0.2,0.2,0.5,0.2,0.6-0.1c0.1-0.2,0.2-0.5-0.1-0.5C10.2,2.4,9.7,1.5,8.6,1.7L8.6,1.7z M3.9,13.2
	c-0.3,1.2,0.5,2.4-0.2,3.6c0-0.8,0.1-1.5-0.1-2.4c-1,1.1-0.8,2.4-1.2,3.5H2.1c-1-1.1-1-1.6,0.1-3.1c0.3-0.4,0.7-0.8,1.1-1.3
	c-0.6-0.1-1,0.4-1.6,0.4C2.4,13.6,2.9,12.8,3.9,13.2L3.9,13.2z M5.6,11c0.7,0.1,1.3,0.6,2,0.3c0.3-0.4-0.6-0.5-0.2-1
	c0.7,0.4,1.5,0.9,2.4,0.5c0.3-0.4-0.8-0.5-0.2-0.9c0.5-0.3,0.6,0.2,0.9,0.5c1.3,1.6,1.2,2.8-0.4,4.1c-0.3,0.3-0.8,0.4-1,0
	c-0.8-1.4-2.4-1.9-3.4-3C5.6,11.3,5.6,11.2,5.6,11L5.6,11z"/>
</svg>
